# xmcd
#
# Track frame offsets: 
#        150
#        12206
#        24922
#        38375
#        52935
#        64528
#        78224
#        90277
#        101898
#        113818
#        126941
#        137650
#        148737
#        159902
#        172888
#        187139
#        201391
#        212433
#        224245
#        235803
#
# Disc length: 3319 seconds
#
# Revision: 2
# Processed by: cddbd v1.5.2PL0 Copyright (c) Steve Scherf et al.
# Submitted via: ExactAudioCopy v1.1
#
DISCID=0b0cf514
DTITLE=Various Artist - Rhythm and Blues Goes Rock 'N' Roll - CD03
DYEAR=2002
DGENRE=Blues
TTITLE0=Mary Deloatch (Marylyn Scott) - Straighten Him Out (mono)
TTITLE1=Paul Gayten - Peter Blue And Jasper Too (mono)
TTITLE2=Jack McVea - Wine-O (mono)
TTITLE3=Stick McGhee - Drinkin' Wine Spo-Dee-O-Dee (mono)
TTITLE4=Ivory Joe Hunter - I Like It (mono)
TTITLE5=Joe Turner - Long Down Dog (mono)
TTITLE6=King Porter - Rustle Street Hustle (mono)
TTITLE7=Marie Well - Come On In (mono)
TTITLE8=King Perry - Keep A Dollar In Your Pocket (mono)
TTITLE9=Lowell Fulson - 9:30 Shuffle (mono)
TTITLE10=King Porter and Marylyn Scott - I Want To Die Easy (mono)
TTITLE11=Paul Gayten - Creole Gal (mono)
TTITLE12=Annie Laurie - My Rough And Ready Man (mono)
TTITLE13=Stick McGhee - Let's Do It (mono)
TTITLE14=Ivory Joe Hunter - I Had A Girl (mono)
TTITLE15=Joe Turner - My Gal's A Jockey (mono)
TTITLE16=Marylyn Scott - Rumors Of War (mono)
TTITLE17=Stick McGhee - One Monkey Don't Stop The Show (mono)
TTITLE18=Joe Turner - I Got Love For Sale (mono)
TTITLE19=Mary Deloatch (Marylyn Scott) - The Lord's Gospel Train (mono
TTITLE19=)
EXTD=
EXTT0=
EXTT1=
EXTT2=
EXTT3=
EXTT4=
EXTT5=
EXTT6=
EXTT7=
EXTT8=
EXTT9=
EXTT10=
EXTT11=
EXTT12=
EXTT13=
EXTT14=
EXTT15=
EXTT16=
EXTT17=
EXTT18=
EXTT19=
PLAYORDER=
